<mxfile host="app.diagrams.net" agent="Mozilla/5.0 (Macintosh; Intel Mac OS X 10_15_7) AppleWebKit/537.36 (KHTML, like Gecko) Chrome/133.0.0.0 Safari/537.36" version="26.0.15">
  <diagram name="Page-1" id="pYHqYrwtEE9zfy6UpCun">
    <mxGraphModel>
      <root>
        <mxCell id="0" />
        <mxCell id="1" parent="0" />
        <mxCell id="2" value="AWS Serverless Application" style="whiteSpace=wrap;strokeWidth=2;verticalAlign=top;" vertex="1" parent="1">
          <mxGeometry x="8" y="8" width="749" height="849" as="geometry" />
        </mxCell>
        <mxCell id="3" value="CloudWatch" style="whiteSpace=wrap;strokeWidth=2;" vertex="1" parent="2">
          <mxGeometry x="83" y="63" width="145" height="54" as="geometry" />
        </mxCell>
        <mxCell id="4" value="Monitoring" style="whiteSpace=wrap;strokeWidth=2;" vertex="1" parent="2">
          <mxGeometry x="46" y="28" width="220" height="124" as="geometry" />
        </mxCell>
        <mxCell id="5" value="API Gateway" style="rounded=1;arcSize=20;strokeWidth=2" vertex="1" parent="2">
          <mxGeometry x="95" y="568" width="120" height="54" as="geometry" />
        </mxCell>
        <mxCell id="6" value="Lambda Function" style="rounded=1;arcSize=20;strokeWidth=2" vertex="1" parent="2">
          <mxGeometry x="340" y="505" width="153" height="54" as="geometry" />
        </mxCell>
        <mxCell id="7" value="DynamoDB" style="rounded=1;arcSize=20;strokeWidth=2" vertex="1" parent="2">
          <mxGeometry x="572" y="455" width="106" height="54" as="geometry" />
        </mxCell>
        <mxCell id="8" value="S3 Bucket" style="rounded=1;arcSize=20;strokeWidth=2" vertex="1" parent="2">
          <mxGeometry x="575" y="568" width="100" height="54" as="geometry" />
        </mxCell>
        <mxCell id="9" value="Event1" style="whiteSpace=wrap;strokeWidth=2;" vertex="1" parent="2">
          <mxGeometry x="101" y="311" width="109" height="54" as="geometry" />
        </mxCell>
        <mxCell id="10" value="Event2" style="whiteSpace=wrap;strokeWidth=2;" vertex="1" parent="2">
          <mxGeometry x="101" y="207" width="109" height="54" as="geometry" />
        </mxCell>
        <mxCell id="11" value="Permissions" style="whiteSpace=wrap;strokeWidth=2;" vertex="1" parent="2">
          <mxGeometry x="568" y="692" width="114" height="40" as="geometry" />
        </mxCell>
        <mxCell id="12" value="Events" style="whiteSpace=wrap;strokeWidth=2;" vertex="1" parent="2">
          <mxGeometry x="46" y="172" width="220" height="228" as="geometry" />
        </mxCell>
        <mxCell id="13" value="Resources" style="whiteSpace=wrap;strokeWidth=2;" vertex="1" parent="2">
          <mxGeometry x="574" y="782" width="103" height="40" as="geometry" />
        </mxCell>
        <mxCell id="14" value="AWS Services" style="whiteSpace=wrap;strokeWidth=2;" vertex="1" parent="2">
          <mxGeometry x="46" y="420" width="674" height="237" as="geometry" />
        </mxCell>
        <mxCell id="15" value="" style="curved=1;startArrow=none;endArrow=block;exitX=1;exitY=0.5;entryX=0.18;entryY=1;" edge="1" parent="2" source="5" target="6">
          <mxGeometry relative="1" as="geometry">
            <Array as="points">
              <mxPoint x="303" y="595" />
            </Array>
          </mxGeometry>
        </mxCell>
        <mxCell id="16" value="" style="curved=1;startArrow=none;endArrow=block;exitX=1;exitY=0.26;entryX=0;entryY=0.82;" edge="1" parent="2" source="6" target="7">
          <mxGeometry relative="1" as="geometry">
            <Array as="points">
              <mxPoint x="531" y="513" />
            </Array>
          </mxGeometry>
        </mxCell>
        <mxCell id="17" value="" style="curved=1;startArrow=none;endArrow=block;exitX=0.74;exitY=1;entryX=0;entryY=0.7;" edge="1" parent="2" source="6" target="8">
          <mxGeometry relative="1" as="geometry">
            <Array as="points">
              <mxPoint x="531" y="616" />
            </Array>
          </mxGeometry>
        </mxCell>
        <mxCell id="18" value="" style="curved=1;startArrow=none;endArrow=block;exitX=1;exitY=0.5;entryX=0.03;entryY=1;" edge="1" parent="2" source="9" target="6">
          <mxGeometry relative="1" as="geometry">
            <Array as="points">
              <mxPoint x="265" y="338" />
              <mxPoint x="303" y="575" />
            </Array>
          </mxGeometry>
        </mxCell>
        <mxCell id="19" value="" style="curved=1;startArrow=none;endArrow=block;exitX=1;exitY=0.5;entryX=0.01;entryY=0;" edge="1" parent="2" source="10" target="6">
          <mxGeometry relative="1" as="geometry">
            <Array as="points">
              <mxPoint x="265" y="234" />
              <mxPoint x="303" y="491" />
            </Array>
          </mxGeometry>
        </mxCell>
        <mxCell id="20" value="" style="curved=1;startArrow=none;endArrow=block;exitX=0.9;exitY=0;entryX=0;entryY=0.5;" edge="1" parent="2" source="6" target="7">
          <mxGeometry relative="1" as="geometry">
            <Array as="points">
              <mxPoint x="531" y="482" />
            </Array>
          </mxGeometry>
        </mxCell>
        <mxCell id="21" value="" style="curved=1;startArrow=none;endArrow=block;exitX=1;exitY=0.87;entryX=0;entryY=0.18;" edge="1" parent="2" source="6" target="8">
          <mxGeometry relative="1" as="geometry">
            <Array as="points">
              <mxPoint x="531" y="562" />
            </Array>
          </mxGeometry>
        </mxCell>
        <mxCell id="22" value="" style="curved=1;startArrow=none;endArrow=block;exitX=1;exitY=0.76;entryX=0.17;entryY=0;" edge="1" parent="2" source="3" target="6">
          <mxGeometry relative="1" as="geometry">
            <Array as="points">
              <mxPoint x="265" y="111" />
              <mxPoint x="303" y="471" />
            </Array>
          </mxGeometry>
        </mxCell>
        <mxCell id="23" value="" style="curved=1;startArrow=none;endArrow=block;exitX=1;exitY=0.37;entryX=0;entryY=0.07;" edge="1" parent="2" source="3" target="7">
          <mxGeometry relative="1" as="geometry">
            <Array as="points">
              <mxPoint x="265" y="79" />
              <mxPoint x="303" y="440" />
              <mxPoint x="531" y="440" />
            </Array>
          </mxGeometry>
        </mxCell>
      </root>
    </mxGraphModel>
  </diagram>
</mxfile>
